<svg width="271" height="72" viewBox="0 0 271 72" fill="none" xmlns="http://www.w3.org/2000/svg">
<path d="M143.142 61.2962H152.258V24.9341H160.339V17.5611H152.258V14.4443C152.258 9.45081 154.162 7.54054 159.705 7.54054V0C148.285 0 143.142 4.35676 143.142 14.4443V17.5611H138V24.9341H143.142V61.2962ZM207.856 39.3784C207.856 25.6378 198.072 16.8238 185.65 16.8238C173.228 16.8238 163.411 25.6378 163.411 39.3784C163.411 53.1189 172.828 62 185.25 62C197.738 62 207.856 53.1189 207.856 39.3784ZM172.594 39.3784C172.594 29.4584 178.671 24.6995 185.483 24.6995C192.195 24.6995 198.606 29.4584 198.606 39.3784C198.606 49.2984 191.961 54.1578 185.25 54.1578C178.438 54.1578 172.594 49.2984 172.594 39.3784ZM223.851 38.2724C223.851 28.9892 227.958 26.2076 234.603 26.2076H236.907V16.8238C230.729 16.8238 226.388 19.5384 223.851 23.8951V17.5611H214.835V61.2962H223.851V38.2724ZM271 17.5611H240.78V24.9341H260.649L240.78 53.9232V61.2962H271V53.9232H251.232L271 24.9341V17.5611Z" fill="#ffffff"/>
<path fill-rule="evenodd" clip-rule="evenodd" d="M93.4063 15.0261L55.5506 61.3236L52.2515 65.4096L47.2197 71.5387L0 13.741L10.9302 0.329519L23.4932 0.296571L11.1968 15.3227L42.8542 54.0741L44.687 56.3149L44.9536 56.6114L47.253 59.4453L47.2863 59.4124L50.5853 55.3593L52.7847 52.6572L21.6937 14.5648L33.3903 0.263617L80.7766 0.0988568L90.807 11.8297L93.4063 15.0261ZM82.8093 15.8828L82.4428 15.4215L77.211 9.06178L76.6778 8.36979L75.9447 8.40275L39.2886 8.56751H38.5555L38.0223 9.22654L33.357 14.8943L32.9904 15.3556L33.357 15.784L57.7499 45.6384L58.1498 46.0998L58.4831 45.6384L82.4428 16.3442L82.8093 15.8828ZM115 15.2238L68.6134 72L63.3483 65.5744L93.3729 28.833L103.403 16.5748L89.8073 0.0659079L102.57 0L115 15.2238Z" fill="#ffffff"/>
</svg>
